<mxfile host="www.draw.io" modified="2020-01-04T12:15:39.316Z" agent="Mozilla/5.0 (Windows NT 10.0; Win64; x64) AppleWebKit/537.36 (KHTML, like Gecko) Chrome/79.0.3945.88 Safari/537.36" etag="XBvv1lvWV3XdmN6d1V3-" version="12.4.8" type="github">
  <diagram id="duvUHGbMGG6NwGxBhhJN" name="Page-1">
    <mxGraphModel dx="1066" dy="637" grid="0" gridSize="10" guides="1" tooltips="1" connect="1" arrows="1" fold="1" page="0" pageScale="1" pageWidth="850" pageHeight="1100" math="1" shadow="0">
      <root>
        <mxCell id="0"/>
        <mxCell id="1" parent="0"/>
        <mxCell id="Qcq0cSZDVtyanvdOLCPI-1" value="&lt;button&gt;haha&lt;/button&gt;" style="text;html=1;strokeColor=none;fillColor=none;align=center;verticalAlign=middle;whiteSpace=wrap;rounded=0;" vertex="1" parent="1">
          <mxGeometry x="240" y="170" width="180" height="210" as="geometry"/>
        </mxCell>
        <mxCell id="Qcq0cSZDVtyanvdOLCPI-2" value="&lt;font style=&quot;font-size: 24px&quot;&gt;$$\sqrt{x}$$&lt;/font&gt;" style="text;html=1;strokeColor=none;fillColor=none;align=center;verticalAlign=middle;whiteSpace=wrap;rounded=0;" vertex="1" parent="1">
          <mxGeometry x="34" y="232" width="179" height="131" as="geometry"/>
        </mxCell>
      </root>
    </mxGraphModel>
  </diagram>
</mxfile>
